<svg width="113" height="24" viewBox="0 0 113 24" fill="none" xmlns="http://www.w3.org/2000/svg">
<path opacity="0.7" d="M20.0212 16.7206L10.4089 24V17.5699C11.7306 16.5993 17.9786 11.8676 17.9786 11.8676C17.9786 11.8676 21.3429 9.92647 20.3817 7.5C23.746 10.8971 22.4243 14.7794 20.0212 16.7206Z" fill="white"/>
<path d="M19.9628 7.22628L10.4089 0V6.38321C11.7226 7.34672 17.9326 12.0438 17.9326 12.0438C17.9326 12.0438 21.3959 14.0912 20.4405 16.5C23.7843 13.1277 22.3513 9.15329 19.9628 7.22628Z" fill="white"/>
<path opacity="0.7" d="M9.61231 16.7206L0 24V17.5699C1.32169 16.5993 7.5697 11.8676 7.5697 11.8676C7.5697 11.8676 10.934 9.92647 9.97277 7.5C13.3371 10.8971 12.0154 14.7794 9.61231 16.7206Z" fill="white"/>
<path d="M9.55387 7.22628L0 0V6.38321C1.31366 7.34672 7.52367 12.0438 7.52367 12.0438C7.52367 12.0438 10.9869 14.0912 10.0316 16.5C13.3754 13.1277 11.9423 9.15329 9.55387 7.22628Z" fill="white"/>
<path d="M34.6022 4.2736C33.9638 4.2736 33.4386 4.07296 33.0267 3.67168C32.6149 3.27041 32.4089 2.75878 32.4089 2.1368C32.4089 1.51482 32.6149 1.00319 33.0267 0.601916C33.4386 0.200639 33.9638 0 34.6022 0C35.2406 0 35.7657 0.200639 36.1776 0.601916C36.5895 1.00319 36.7954 1.51482 36.7954 2.1368C36.7954 2.75878 36.5895 3.27041 36.1776 3.67168C35.7657 4.07296 35.2406 4.2736 34.6022 4.2736ZM33.1194 21.7592C33.0164 21.7592 32.9238 21.7291 32.8414 21.6689C32.7796 21.5887 32.7487 21.4984 32.7487 21.3981V6.71136C32.7487 6.61104 32.7796 6.53078 32.8414 6.47059C32.9238 6.39033 33.0164 6.35021 33.1194 6.35021H35.9613C36.0643 6.35021 36.1467 6.39033 36.2085 6.47059C36.2908 6.53078 36.332 6.61104 36.332 6.71136V21.3981C36.332 21.4984 36.2908 21.5887 36.2085 21.6689C36.1467 21.7291 36.0643 21.7592 35.9613 21.7592H33.1194Z" fill="white"/>
<path d="M47.3872 6.13953C49.0553 6.13953 50.3836 6.62107 51.3721 7.58413C52.3812 8.5472 52.8857 9.86138 52.8857 11.5267V21.3981C52.8857 21.4984 52.8446 21.5887 52.7622 21.6689C52.7004 21.7291 52.618 21.7592 52.5151 21.7592H49.6731C49.5702 21.7592 49.4775 21.7291 49.3951 21.6689C49.3333 21.5887 49.3024 21.4984 49.3024 21.3981V12.249C49.3024 11.326 49.0347 10.5837 48.4993 10.0219C47.9639 9.44004 47.2534 9.14911 46.3678 9.14911C45.4823 9.14911 44.7615 9.43001 44.2055 9.99179C43.6701 10.5536 43.4024 11.2959 43.4024 12.2189V21.3981C43.4024 21.4984 43.3612 21.5887 43.2788 21.6689C43.217 21.7291 43.1346 21.7592 43.0317 21.7592H40.1897C40.0868 21.7592 39.9941 21.7291 39.9117 21.6689C39.8499 21.5887 39.819 21.4984 39.819 21.3981V6.74145C39.819 6.64113 39.8499 6.56088 39.9117 6.50068C39.9941 6.42043 40.0868 6.3803 40.1897 6.3803H43.0317C43.1346 6.3803 43.217 6.42043 43.2788 6.50068C43.3612 6.56088 43.4024 6.64113 43.4024 6.74145V7.70452C43.4024 7.76471 43.4229 7.80483 43.4641 7.8249C43.5053 7.84496 43.5362 7.8249 43.5568 7.76471C44.4011 6.68126 45.678 6.13953 47.3872 6.13953Z" fill="white"/>
<path d="M64.2209 6.35021C64.3239 6.35021 64.4062 6.39033 64.468 6.47059C64.5504 6.53078 64.5916 6.61104 64.5916 6.71136V9.08892C64.5916 9.18924 64.5504 9.27953 64.468 9.35978C64.4062 9.41997 64.3239 9.45007 64.2209 9.45007H61.1627C61.0598 9.45007 61.0083 9.50023 61.0083 9.60055V21.3981C61.0083 21.4984 60.9671 21.5887 60.8847 21.6689C60.8229 21.7291 60.7406 21.7592 60.6376 21.7592H57.7957C57.6927 21.7592 57.6 21.7291 57.5176 21.6689C57.4559 21.5887 57.425 21.4984 57.425 21.3981V9.60055C57.425 9.50023 57.3735 9.45007 57.2705 9.45007H55.3553C55.2523 9.45007 55.1597 9.41997 55.0773 9.35978C55.0155 9.27953 54.9846 9.18924 54.9846 9.08892V6.71136C54.9846 6.61104 55.0155 6.53078 55.0773 6.47059C55.1597 6.39033 55.2523 6.35021 55.3553 6.35021H57.2705C57.3735 6.35021 57.425 6.30005 57.425 6.19973V5.658C57.425 4.35385 57.6 3.35066 57.9501 2.64843C58.3002 1.92613 58.8768 1.4145 59.68 1.11354C60.4831 0.812586 61.6158 0.672139 63.0779 0.692203H64.1591C64.2621 0.692203 64.3445 0.73233 64.4062 0.812586C64.4886 0.872778 64.5298 0.953033 64.5298 1.05335V3.16006C64.5298 3.26037 64.4886 3.35066 64.4062 3.43092C64.3445 3.49111 64.2621 3.52121 64.1591 3.52121H63.356C62.4704 3.52121 61.8526 3.69175 61.5025 4.03283C61.173 4.37392 61.0083 4.9959 61.0083 5.89877V6.19973C61.0083 6.30005 61.0598 6.35021 61.1627 6.35021H64.2209ZM69.6576 4.2736C69.0192 4.2736 68.4941 4.07296 68.0822 3.67168C67.6703 3.27041 67.4644 2.75878 67.4644 2.1368C67.4644 1.51482 67.6703 1.00319 68.0822 0.601916C68.4941 0.200639 69.0192 0 69.6576 0C70.296 0 70.8212 0.200639 71.233 0.601916C71.6449 1.00319 71.8509 1.51482 71.8509 2.1368C71.8509 2.75878 71.6449 3.27041 71.233 3.67168C70.8212 4.07296 70.296 4.2736 69.6576 4.2736ZM68.1749 21.7592C68.0719 21.7592 67.9792 21.7291 67.8969 21.6689C67.8351 21.5887 67.8042 21.4984 67.8042 21.3981V6.71136C67.8042 6.61104 67.8351 6.53078 67.8969 6.47059C67.9792 6.39033 68.0719 6.35021 68.1749 6.35021H71.0168C71.1198 6.35021 71.2022 6.39033 71.2639 6.47059C71.3463 6.53078 71.3875 6.61104 71.3875 6.71136V21.3981C71.3875 21.4984 71.3463 21.5887 71.2639 21.6689C71.2022 21.7291 71.1198 21.7592 71.0168 21.7592H68.1749Z" fill="white"/>
<path d="M91.7709 6.13953C93.3566 6.13953 94.5922 6.61103 95.4778 7.55404C96.3839 8.47697 96.837 9.77109 96.837 11.4364V21.3981C96.837 21.4984 96.7958 21.5887 96.7134 21.6689C96.6516 21.7291 96.5692 21.7592 96.4663 21.7592H93.6552C93.5523 21.7592 93.4596 21.7291 93.3772 21.6689C93.3154 21.5887 93.2845 21.4984 93.2845 21.3981V12.1587C93.2845 11.2358 93.0271 10.5034 92.5123 9.9617C92.018 9.41997 91.3487 9.14911 90.5044 9.14911C89.6601 9.14911 88.9702 9.41997 88.4347 9.9617C87.8993 10.5034 87.6316 11.2257 87.6316 12.1286V21.3981C87.6316 21.4984 87.5904 21.5887 87.508 21.6689C87.4462 21.7291 87.3639 21.7592 87.2609 21.7592H84.4499C84.3469 21.7592 84.2542 21.7291 84.1718 21.6689C84.1101 21.5887 84.0792 21.4984 84.0792 21.3981V12.1587C84.0792 11.2358 83.8217 10.5034 83.3069 9.9617C82.7921 9.41997 82.1125 9.14911 81.2681 9.14911C80.4856 9.14911 79.8369 9.36981 79.322 9.81122C78.8278 10.2526 78.5395 10.8545 78.4571 11.617V21.3981C78.4571 21.4984 78.4159 21.5887 78.3335 21.6689C78.2717 21.7291 78.1894 21.7592 78.0864 21.7592H75.2445C75.1415 21.7592 75.0488 21.7291 74.9665 21.6689C74.9047 21.5887 74.8738 21.4984 74.8738 21.3981V6.74145C74.8738 6.64113 74.9047 6.56088 74.9665 6.50068C75.0488 6.42043 75.1415 6.3803 75.2445 6.3803H78.0864C78.1894 6.3803 78.2717 6.42043 78.3335 6.50068C78.4159 6.56088 78.4571 6.64113 78.4571 6.74145V7.73461C78.4571 7.7948 78.4777 7.83493 78.5189 7.85499C78.5601 7.87506 78.6012 7.85499 78.6424 7.7948C79.0955 7.23301 79.6515 6.82171 80.3105 6.56088C80.9901 6.27998 81.7418 6.13953 82.5655 6.13953C83.5746 6.13953 84.4602 6.34017 85.2221 6.74145C85.9841 7.14273 86.571 7.72458 86.9829 8.487C87.0447 8.56726 87.1167 8.56726 87.1991 8.487C87.6522 7.68445 88.2803 7.09257 89.0834 6.71136C89.8866 6.33014 90.7824 6.13953 91.7709 6.13953Z" fill="white"/>
<path d="M105.891 6.13953C107.188 6.13953 108.331 6.36024 109.32 6.80164C110.308 7.24305 111.07 7.85499 111.606 8.63748C112.141 9.39991 112.409 10.2727 112.409 11.2558V21.3981C112.409 21.4984 112.368 21.5887 112.285 21.6689C112.224 21.7291 112.141 21.7592 112.038 21.7592H109.196C109.093 21.7592 109.001 21.7291 108.918 21.6689C108.857 21.5887 108.826 21.4984 108.826 21.3981V20.435C108.826 20.3748 108.805 20.3447 108.764 20.3447C108.723 20.3247 108.681 20.3347 108.64 20.3748C107.631 21.4583 106.169 22 104.254 22C102.709 22 101.432 21.6188 100.423 20.8564C99.4349 20.0939 98.9407 18.9603 98.9407 17.4555C98.9407 15.8906 99.4967 14.6767 100.609 13.814C101.741 12.9311 103.327 12.4897 105.366 12.4897H108.671C108.774 12.4897 108.826 12.4396 108.826 12.3393V11.617C108.826 10.8345 108.589 10.2326 108.115 9.81122C107.641 9.36981 106.931 9.14911 105.984 9.14911C105.201 9.14911 104.563 9.28956 104.068 9.57045C103.595 9.83128 103.296 10.2025 103.173 10.684C103.111 10.9248 102.967 11.0251 102.74 10.985L99.7438 10.6238C99.6408 10.6037 99.5482 10.5736 99.4658 10.5335C99.404 10.4733 99.3834 10.4031 99.404 10.3228C99.5688 9.09895 100.238 8.09576 101.412 7.31327C102.606 6.53078 104.099 6.13953 105.891 6.13953ZM105.15 19.2312C106.159 19.2312 107.024 18.9704 107.744 18.4487C108.465 17.927 108.826 17.2649 108.826 16.4624V15.0479C108.826 14.9476 108.774 14.8974 108.671 14.8974H106.076C104.985 14.8974 104.12 15.098 103.482 15.4993C102.864 15.9006 102.555 16.4724 102.555 17.2148C102.555 17.8568 102.792 18.3584 103.265 18.7196C103.76 19.0606 104.388 19.2312 105.15 19.2312Z" fill="white"/>
</svg>
