<svg width="214" height="100" viewBox="0 0 214 100" fill="none" xmlns="http://www.w3.org/2000/svg">
<rect width="214" height="100" fill="white"/>
<path d="M0 54.6768C0 54.458 0.0820312 54.2666 0.246094 54.1025C0.410156 53.9248 0.601562 53.8359 0.820312 53.8359H4.01953C4.52539 53.8359 4.84668 53.9248 4.9834 54.1025C5.12012 54.2666 5.22266 54.5264 5.29102 54.8818C5.37305 55.6885 5.7627 56.2559 6.45996 56.584C7.15723 56.9121 7.99805 57.0762 8.98242 57.0762C10.1309 57.0762 11.0605 56.9121 11.7715 56.584C12.4824 56.2422 12.8379 55.75 12.8379 55.1074C12.8379 54.7383 12.7217 54.4443 12.4893 54.2256C12.2705 53.9932 11.9766 53.8154 11.6074 53.6924C11.252 53.5693 10.8418 53.4668 10.377 53.3848C9.92578 53.2891 9.46094 53.2139 8.98242 53.1592C8.12109 53.0498 7.19824 52.8721 6.21387 52.626C5.22949 52.3662 4.31348 51.9902 3.46582 51.498C2.63184 50.9922 1.93457 50.3359 1.37402 49.5293C0.813477 48.709 0.533203 47.6836 0.533203 46.4531C0.533203 45.5234 0.786133 44.6689 1.29199 43.8896C1.79785 43.0967 2.44727 42.4268 3.24023 41.8799C4.04688 41.3193 4.94922 40.8818 5.94727 40.5674C6.95898 40.2529 7.9707 40.0957 8.98242 40.0957C9.93945 40.0957 10.9033 40.2256 11.874 40.4854C12.8584 40.7314 13.7471 41.1211 14.54 41.6543C15.3467 42.1875 16.0029 42.8916 16.5088 43.7666C17.0283 44.6279 17.2881 45.6602 17.2881 46.8633C17.2881 47.082 17.2061 47.2803 17.042 47.458C16.8779 47.6221 16.6797 47.7041 16.4473 47.7041H13.3096C13.0908 47.7041 12.8857 47.6426 12.6943 47.5195C12.5166 47.3965 12.4004 47.1094 12.3457 46.6582C12.2363 45.9609 11.8398 45.4688 11.1562 45.1816C10.4863 44.8809 9.76172 44.7305 8.98242 44.7305C8.02539 44.7305 7.22559 44.874 6.58301 45.1611C5.94043 45.4346 5.61914 45.8652 5.61914 46.4531C5.61914 46.7676 5.70801 47.0205 5.88574 47.2119C6.07715 47.4033 6.33008 47.5537 6.64453 47.6631C6.97266 47.7725 7.33496 47.8682 7.73145 47.9502C8.1416 48.0186 8.55859 48.0938 8.98242 48.1758C9.91211 48.3398 10.8896 48.5381 11.915 48.7705C12.9541 48.9893 13.9111 49.3311 14.7861 49.7959C15.6748 50.2471 16.4131 50.9033 17.001 51.7646C17.5889 52.6123 17.8828 53.7539 17.8828 55.1895C17.8828 56.2285 17.6436 57.165 17.165 57.999C16.6865 58.833 16.0439 59.5508 15.2373 60.1523C14.4307 60.7539 13.4873 61.2188 12.4072 61.5469C11.3271 61.875 10.1855 62.0391 8.98242 62.0391C7.83398 62.0391 6.71973 61.9023 5.63965 61.6289C4.55957 61.3691 3.5957 60.9453 2.74805 60.3574C1.91406 59.7695 1.24414 59.0039 0.738281 58.0605C0.246094 57.1172 0 55.9893 0 54.6768Z" fill="black"/>
<path d="M21.1337 54.2256V41.4082C21.1337 41.1895 21.2157 40.998 21.3798 40.834C21.5439 40.6562 21.7421 40.5674 21.9745 40.5674H25.748C25.9667 40.5674 26.1581 40.6562 26.3222 40.834C26.4999 40.998 26.5888 41.1895 26.5888 41.4082V54.2666C26.5888 54.9639 26.8622 55.5518 27.4091 56.0303C27.956 56.4951 28.7284 56.7275 29.7265 56.7275C30.7109 56.7275 31.4833 56.5088 32.0439 56.0713C32.6044 55.6201 32.8847 55.0732 32.8847 54.4307V41.4082C32.8847 41.1895 32.9667 40.998 33.1308 40.834C33.3085 40.6562 33.5068 40.5674 33.7255 40.5674H37.4989C37.7177 40.5674 37.9091 40.6562 38.0732 40.834C38.2509 40.998 38.3398 41.1895 38.3398 41.4082V60.7266C38.3398 60.9453 38.2577 61.1436 38.0937 61.3213C37.9296 61.4854 37.7314 61.5674 37.4989 61.5674H35.4072C35.1611 61.5674 34.9628 61.5264 34.8124 61.4443C34.6757 61.3623 34.5527 61.2666 34.4433 61.1572C34.3066 61.0479 34.1698 60.9521 34.0331 60.8701C33.9101 60.7744 33.7392 60.7266 33.5204 60.7266C33.206 60.7266 32.912 60.8018 32.6386 60.9521C32.3788 61.0889 32.0917 61.2324 31.7773 61.3828C31.4765 61.5332 31.1073 61.6768 30.6698 61.8135C30.246 61.9639 29.7265 62.0391 29.1112 62.0391C28.0175 62.0391 26.9784 61.834 25.9941 61.4238C25.0234 61.0137 24.1757 60.46 23.4511 59.7627C22.7402 59.0654 22.1728 58.2383 21.7489 57.2812C21.3388 56.3242 21.1337 55.3057 21.1337 54.2256Z" fill="black"/>
<path d="M42.9852 69.1348V41.4082C42.9852 41.1895 43.0672 40.998 43.2313 40.834C43.3954 40.6562 43.5936 40.5674 43.826 40.5674H45.9178C46.1092 40.5674 46.3075 40.6631 46.5125 40.8545C46.6493 40.9912 46.7996 41.1416 46.9637 41.3057C47.1414 41.4561 47.3397 41.5312 47.5584 41.5312C47.8729 41.5312 48.1395 41.4561 48.3582 41.3057C48.577 41.1553 48.8504 40.998 49.1786 40.834C49.5067 40.6562 49.8963 40.4922 50.3475 40.3418C50.8123 40.1777 51.4344 40.0957 52.2137 40.0957C53.3075 40.0957 54.326 40.3008 55.2694 40.7109C56.2127 41.1211 57.033 41.6748 57.7303 42.3721C58.4276 43.0693 58.9881 43.8965 59.412 44.8535C59.8495 45.8105 60.1161 46.8291 60.2118 47.9092C60.2391 48.333 60.2596 48.8184 60.2733 49.3652C60.287 49.9121 60.2938 50.4795 60.2938 51.0674C60.2938 51.6553 60.287 52.2227 60.2733 52.7695C60.2596 53.3164 60.2391 53.8018 60.2118 54.2256C60.1297 55.3193 59.87 56.3447 59.4325 57.3018C58.995 58.2451 58.4276 59.0654 57.7303 59.7627C57.033 60.46 56.2127 61.0137 55.2694 61.4238C54.326 61.834 53.3075 62.0391 52.2137 62.0391C51.5711 62.0391 51.0653 61.9844 50.6961 61.875C50.3407 61.7793 50.0125 61.6631 49.7118 61.5264C49.3973 61.3896 49.1034 61.3828 48.8299 61.5059C48.5702 61.6289 48.4403 61.9297 48.4403 62.4082V69.1348C48.4403 69.3535 48.3582 69.5449 48.1942 69.709C48.0301 69.8867 47.8319 69.9756 47.5995 69.9756H43.826C43.6073 69.9756 43.409 69.8867 43.2313 69.709C43.0672 69.5449 42.9852 69.3535 42.9852 69.1348ZM48.3377 49.3652C48.3241 49.9121 48.3172 50.4795 48.3172 51.0674C48.3172 51.6553 48.3241 52.2227 48.3377 52.7695C48.3514 53.3164 48.3719 53.8018 48.3993 54.2256C48.4539 55.0322 48.7411 55.6543 49.2606 56.0918C49.7801 56.5156 50.5594 56.7275 51.5985 56.7275C52.6102 56.7275 53.369 56.4883 53.8748 56.0098C54.3944 55.5176 54.6815 54.9229 54.7362 54.2256C54.7635 53.8018 54.784 53.3164 54.7977 52.7695C54.8114 52.2227 54.8182 51.6553 54.8182 51.0674C54.8182 50.4795 54.8114 49.9121 54.7977 49.3652C54.784 48.8184 54.7635 48.333 54.7362 47.9092C54.6815 47.2119 54.3944 46.624 53.8748 46.1455C53.3553 45.6533 52.5965 45.4072 51.5985 45.4072C50.5594 45.4072 49.7801 45.6465 49.2606 46.125C48.7411 46.5898 48.4539 47.1846 48.3993 47.9092C48.3719 48.333 48.3514 48.8184 48.3377 49.3652Z" fill="black"/>
<path d="M63.4627 52.7695C63.4353 52.2227 63.4216 51.6553 63.4216 51.0674C63.4216 50.4795 63.4353 49.9121 63.4627 49.3652C63.49 48.8184 63.531 48.333 63.5857 47.9092C63.7224 46.8154 64.0095 45.7969 64.447 44.8535C64.8845 43.8965 65.4724 43.0693 66.2107 42.3721C66.949 41.6748 67.824 41.1211 68.8357 40.7109C69.8474 40.3008 70.9959 40.0957 72.281 40.0957C73.5388 40.0957 74.6941 40.2803 75.7468 40.6494C76.7996 41.0186 77.7019 41.5586 78.4539 42.2695C79.2058 42.9805 79.7937 43.8486 80.2175 44.874C80.6414 45.8994 80.8533 47.082 80.8533 48.4219V51.9082C80.8533 52.127 80.7644 52.3252 80.5867 52.5029C80.4226 52.667 80.2312 52.749 80.0125 52.749H69.2254C68.8015 52.749 68.5896 52.9609 68.5896 53.3848C68.5896 54.5605 68.9519 55.4492 69.6765 56.0508C70.4011 56.6523 71.2693 56.9531 72.281 56.9531C73.0877 56.9531 73.7713 56.8301 74.3318 56.584C74.8923 56.3242 75.3162 55.8594 75.6033 55.1895C75.7947 54.7109 76.116 54.4717 76.5672 54.4717H80.0535C80.2722 54.4717 80.4636 54.54 80.6277 54.6768C80.8054 54.8135 80.8533 55.0527 80.7713 55.3945C80.2927 57.3496 79.3425 58.9492 77.9207 60.1934C76.5125 61.4238 74.6326 62.0391 72.281 62.0391C70.9959 62.0391 69.8474 61.834 68.8357 61.4238C67.824 61.0137 66.949 60.46 66.2107 59.7627C65.4724 59.0654 64.8845 58.2383 64.447 57.2812C64.0095 56.3242 63.7224 55.3057 63.5857 54.2256C63.531 53.8018 63.49 53.3164 63.4627 52.7695ZM68.6306 47.7041C68.6306 47.9502 68.7673 48.0801 69.0408 48.0938H75.4392C75.7127 48.0938 75.8494 47.9639 75.8494 47.7041C75.8494 47.2529 75.7537 46.8633 75.5623 46.5352C75.3709 46.1934 75.1043 45.9199 74.7625 45.7148C74.4207 45.5098 74.031 45.3525 73.5935 45.2432C73.1697 45.1201 72.7322 45.0586 72.281 45.0586C71.0779 45.0586 70.1687 45.2979 69.5535 45.7764C68.9382 46.2549 68.6306 46.8975 68.6306 47.7041Z" fill="black"/>
<path d="M84.7194 60.7266V41.4082C84.7194 41.1895 84.8014 40.998 84.9655 40.834C85.1296 40.6562 85.3278 40.5674 85.5602 40.5674H87.652C87.8161 40.5674 87.987 40.6152 88.1647 40.7109C88.3561 40.8066 88.4792 40.9434 88.5339 41.1211C88.6706 41.4902 88.8005 41.8799 88.9235 42.29C89.0602 42.6865 89.3132 42.8848 89.6823 42.8848C90.0241 42.8848 90.3249 42.7686 90.5846 42.5361C90.8444 42.29 91.1794 42.0234 91.5895 41.7363C92.0134 41.4355 92.5397 41.1689 93.1686 40.9365C93.8112 40.6904 94.6452 40.5674 95.6706 40.5674H97.1061C97.3249 40.5674 97.5163 40.6562 97.6804 40.834C97.8581 40.998 97.947 41.1895 97.947 41.4082V44.7715C97.947 44.9902 97.8581 45.1885 97.6804 45.3662C97.5163 45.5303 97.3249 45.6123 97.1061 45.6123H95.6296C94.03 45.6123 92.7175 46.0361 91.6921 46.8838C90.6804 47.7178 90.1745 48.9893 90.1745 50.6982V60.7266C90.1745 60.9453 90.0925 61.1436 89.9284 61.3213C89.7643 61.4854 89.5661 61.5674 89.3337 61.5674H85.5602C85.3415 61.5674 85.1432 61.4854 84.9655 61.3213C84.8014 61.1436 84.7194 60.9453 84.7194 60.7266Z" fill="black"/>
<path d="M99.0855 54.6768C99.0855 54.458 99.1676 54.2666 99.3316 54.1025C99.4957 53.9248 99.6871 53.8359 99.9059 53.8359H103.105C103.611 53.8359 103.932 53.9248 104.069 54.1025C104.206 54.2666 104.308 54.5264 104.377 54.8818C104.459 55.6885 104.848 56.2559 105.546 56.584C106.243 56.9121 107.084 57.0762 108.068 57.0762C109.216 57.0762 110.146 56.9121 110.857 56.584C111.568 56.2422 111.923 55.75 111.923 55.1074C111.923 54.7383 111.807 54.4443 111.575 54.2256C111.356 53.9932 111.062 53.8154 110.693 53.6924C110.338 53.5693 109.927 53.4668 109.463 53.3848C109.011 53.2891 108.546 53.2139 108.068 53.1592C107.207 53.0498 106.284 52.8721 105.299 52.626C104.315 52.3662 103.399 51.9902 102.551 51.498C101.717 50.9922 101.02 50.3359 100.46 49.5293C99.899 48.709 99.6188 47.6836 99.6188 46.4531C99.6188 45.5234 99.8717 44.6689 100.378 43.8896C100.883 43.0967 101.533 42.4268 102.326 41.8799C103.132 41.3193 104.035 40.8818 105.033 40.5674C106.045 40.2529 107.056 40.0957 108.068 40.0957C109.025 40.0957 109.989 40.2256 110.96 40.4854C111.944 40.7314 112.833 41.1211 113.626 41.6543C114.432 42.1875 115.088 42.8916 115.594 43.7666C116.114 44.6279 116.374 45.6602 116.374 46.8633C116.374 47.082 116.292 47.2803 116.128 47.458C115.963 47.6221 115.765 47.7041 115.533 47.7041H112.395C112.176 47.7041 111.971 47.6426 111.78 47.5195C111.602 47.3965 111.486 47.1094 111.431 46.6582C111.322 45.9609 110.925 45.4688 110.242 45.1816C109.572 44.8809 108.847 44.7305 108.068 44.7305C107.111 44.7305 106.311 44.874 105.669 45.1611C105.026 45.4346 104.705 45.8652 104.705 46.4531C104.705 46.7676 104.794 47.0205 104.971 47.2119C105.163 47.4033 105.416 47.5537 105.73 47.6631C106.058 47.7725 106.421 47.8682 106.817 47.9502C107.227 48.0186 107.644 48.0938 108.068 48.1758C108.998 48.3398 109.975 48.5381 111.001 48.7705C112.04 48.9893 112.997 49.3311 113.872 49.7959C114.76 50.2471 115.499 50.9033 116.087 51.7646C116.674 52.6123 116.968 53.7539 116.968 55.1895C116.968 56.2285 116.729 57.165 116.251 57.999C115.772 58.833 115.129 59.5508 114.323 60.1523C113.516 60.7539 112.573 61.2188 111.493 61.5469C110.413 61.875 109.271 62.0391 108.068 62.0391C106.92 62.0391 105.805 61.9023 104.725 61.6289C103.645 61.3691 102.681 60.9453 101.834 60.3574C101 59.7695 100.33 59.0039 99.8238 58.0605C99.3316 57.1172 99.0855 55.9893 99.0855 54.6768Z" fill="black"/>
<path d="M118.107 44.8945V41.5312C118.107 41.3125 118.189 41.1211 118.353 40.957C118.531 40.7793 118.729 40.6904 118.948 40.6904H122.229C122.502 40.6904 122.639 40.5537 122.639 40.2803V33.8408C122.639 33.6221 122.721 33.4307 122.885 33.2666C123.063 33.0889 123.261 33 123.48 33H127.274C127.493 33 127.684 33.0889 127.848 33.2666C128.026 33.4307 128.115 33.6221 128.115 33.8408V40.2803C128.115 40.5537 128.251 40.6904 128.525 40.6904H133.139C133.358 40.6904 133.549 40.7793 133.713 40.957C133.891 41.1211 133.98 41.3125 133.98 41.5312V44.8945C133.98 45.1133 133.898 45.3115 133.734 45.4893C133.57 45.6533 133.372 45.7354 133.139 45.7354H128.525C128.251 45.7354 128.115 45.8721 128.115 46.1455V53.7949C128.115 54.4922 128.34 55.0869 128.792 55.5791C129.256 56.0713 129.872 56.3174 130.637 56.3174H133.57C133.789 56.3174 133.98 56.4062 134.144 56.584C134.322 56.748 134.411 56.9395 134.411 57.1582V60.7266C134.411 60.9453 134.322 61.1436 134.144 61.3213C133.98 61.4854 133.789 61.5674 133.57 61.5674H130.637C128.231 61.5674 126.296 60.8906 124.834 59.5371C123.371 58.1699 122.639 56.2832 122.639 53.877V46.1455C122.639 45.8721 122.502 45.7354 122.229 45.7354H118.948C118.729 45.7354 118.531 45.6533 118.353 45.4893C118.189 45.3115 118.107 45.1133 118.107 44.8945Z" fill="black"/>
<path d="M136.226 55.1074C136.226 54.3828 136.37 53.6377 136.657 52.8721C136.957 52.0928 137.409 51.3818 138.01 50.7393C138.612 50.0967 139.364 49.5703 140.266 49.1602C141.182 48.75 142.242 48.5449 143.445 48.5449H147.731C148.004 48.5449 148.148 48.4082 148.162 48.1348V47.458C148.162 46.5967 147.854 45.9541 147.239 45.5303C146.623 45.1064 145.851 44.8945 144.921 44.8945C144.703 44.8945 144.443 44.915 144.142 44.9561C143.855 44.9971 143.561 45.0723 143.26 45.1816C142.973 45.291 142.713 45.4551 142.481 45.6738C142.262 45.8789 142.112 46.1523 142.03 46.4941C141.948 46.8633 141.831 47.0889 141.681 47.1709C141.544 47.2529 141.278 47.2939 140.881 47.2939H137.867C137.648 47.2939 137.45 47.2119 137.272 47.0479C137.108 46.8701 137.026 46.6719 137.026 46.4531C137.026 45.6191 137.21 44.8262 137.58 44.0742C137.962 43.3086 138.496 42.6318 139.179 42.0439C139.876 41.4561 140.724 40.9844 141.722 40.6289C142.734 40.2734 143.869 40.0957 145.126 40.0957C147.669 40.0957 149.706 40.752 151.238 42.0645C152.769 43.3633 153.535 45.2432 153.535 47.7041V60.7266C153.535 60.9453 153.446 61.1436 153.268 61.3213C153.104 61.4854 152.913 61.5674 152.694 61.5674H150.581C150.363 61.5674 150.171 61.4717 150.007 61.2803C149.871 61.1162 149.761 60.9385 149.679 60.7471C149.611 60.542 149.44 60.4395 149.166 60.4395C148.975 60.4395 148.749 60.5215 148.49 60.6855C148.244 60.8496 147.922 61.0342 147.526 61.2393C147.129 61.4307 146.658 61.6084 146.111 61.7725C145.564 61.9502 144.901 62.0391 144.122 62.0391C141.661 62.0391 139.726 61.4375 138.318 60.2344C136.923 59.0176 136.226 57.3086 136.226 55.1074ZM141.353 55.1074C141.353 55.8867 141.626 56.4541 142.173 56.8096C142.72 57.1514 143.37 57.3223 144.122 57.3223C145.325 57.3223 146.33 57.1172 147.136 56.707C147.956 56.2832 148.367 55.5244 148.367 54.4307V53.4258C148.367 53.1523 148.223 53.0088 147.936 52.9951H143.486C143.035 52.9951 142.672 53.0771 142.399 53.2412C142.125 53.3916 141.907 53.583 141.743 53.8154C141.592 54.0342 141.49 54.2598 141.435 54.4922C141.38 54.7246 141.353 54.9297 141.353 55.1074Z" fill="black"/>
<path d="M158.016 60.7266V41.4082C158.016 41.1895 158.098 40.998 158.262 40.834C158.426 40.6562 158.624 40.5674 158.857 40.5674H160.949C161.113 40.5674 161.284 40.6152 161.461 40.7109C161.653 40.8066 161.776 40.9434 161.83 41.1211C161.967 41.4902 162.097 41.8799 162.22 42.29C162.357 42.6865 162.61 42.8848 162.979 42.8848C163.321 42.8848 163.621 42.7686 163.881 42.5361C164.141 42.29 164.476 42.0234 164.886 41.7363C165.31 41.4355 165.836 41.1689 166.465 40.9365C167.108 40.6904 167.942 40.5674 168.967 40.5674H170.403C170.621 40.5674 170.813 40.6562 170.977 40.834C171.155 40.998 171.244 41.1895 171.244 41.4082V44.7715C171.244 44.9902 171.155 45.1885 170.977 45.3662C170.813 45.5303 170.621 45.6123 170.403 45.6123H168.926C167.327 45.6123 166.014 46.0361 164.989 46.8838C163.977 47.7178 163.471 48.9893 163.471 50.6982V60.7266C163.471 60.9453 163.389 61.1436 163.225 61.3213C163.061 61.4854 162.863 61.5674 162.63 61.5674H158.857C158.638 61.5674 158.44 61.4854 158.262 61.3213C158.098 61.1436 158.016 60.9453 158.016 60.7266Z" fill="black"/>
<path d="M188 0L190.206 23.7938L214 26L190.206 28.2062L188 52L185.794 28.2062L162 26L185.794 23.7938L188 0Z" fill="black"/>
<path d="M114.92 69.008V70.608H121.192V69.008H114.92ZM116.776 69.648C116.616 71.648 115.88 73.04 114.264 73.84C114.664 74.064 115.432 74.64 115.736 74.944C117.384 73.904 118.312 72.256 118.568 69.744L116.776 69.648ZM120.184 69.008V69.248C120.104 71.68 119.992 72.576 119.8 72.832C119.672 72.96 119.528 72.992 119.32 72.992C119.08 72.992 118.6 72.992 118.04 72.928C118.296 73.36 118.472 74.048 118.504 74.544C119.224 74.56 119.88 74.56 120.28 74.512C120.712 74.448 121.064 74.32 121.368 73.968C121.736 73.504 121.896 72.352 121.992 69.664C122.008 69.456 122.008 69.008 122.008 69.008H120.184ZM108.072 70.048V71.712H114.456V70.048H108.072ZM107.704 73.184V74.88H114.728V73.184H107.704ZM111.448 76.624V78.288H114.536V76.624H111.448ZM110.408 68.432V74.064H112.168V68.432H110.408ZM110.712 74.192V81.28H112.408V74.192H110.712ZM109.624 77.344L108.248 77.744C109.352 82.24 111.432 83.04 115.704 83.04H121.944C122.056 82.464 122.376 81.568 122.68 81.136C121.224 81.216 116.92 81.216 115.704 81.2C112.296 81.2 110.472 80.704 109.624 77.344ZM108.2 75.696C108.184 78.432 108.072 81.008 107.24 82.592C107.656 82.768 108.456 83.2 108.776 83.424C109.64 81.616 109.848 78.848 109.88 75.792L108.2 75.696ZM117.128 76.704H119.72V78.688H117.128V76.704ZM115.336 75.168V80.224H121.64V75.168H115.336Z" fill="black"/>
<path d="M130.856 70.144C130.696 75.424 130.104 79.824 127.832 82.336C128.296 82.576 129.192 83.2 129.512 83.488C131.8 80.592 132.488 75.984 132.76 70.224L130.856 70.144ZM129.256 69.408V71.184H135.592V69.408H129.256ZM134.76 73.52L134.264 75.168H136.648V73.52H134.76ZM136.136 73.52V73.888C135.432 77.872 133.416 80.608 130.632 82C131.032 82.304 131.704 83.024 131.976 83.456C134.84 81.84 137.096 78.656 138.008 73.904L136.824 73.44L136.488 73.52H136.136ZM132.344 74.32L130.712 74.784C131.976 78.608 134.088 81.76 137.24 83.376C137.512 82.896 138.088 82.192 138.504 81.84C135.528 80.496 133.384 77.584 132.344 74.32ZM134.712 69.408C134.328 71.264 133.72 73.632 133.208 75.168H135.096C135.544 73.696 136.184 71.344 136.648 69.408H134.712ZM123.816 79.456C123.816 79.12 125 78.56 125 78.56V78.528C126.568 76.944 128.168 74.768 129.384 72.608L127.848 71.632C126.776 73.856 125.096 76.128 124.536 76.72C124.024 77.328 123.656 77.696 123.24 77.792C123.448 78.256 123.72 79.104 123.816 79.456ZM123.816 79.456C124.248 79.152 124.904 78.896 129.032 77.712C128.968 77.312 128.92 76.576 128.952 76.096L124.408 77.28L123.64 77.888L123.816 79.456ZM123.72 75.392C123.72 75.072 124.728 74.48 124.728 74.48V74.448C125.912 73.04 127.128 71.024 127.928 69.136L126.168 68.304C125.576 70.192 124.456 72.192 124.104 72.704C123.736 73.232 123.464 73.568 123.128 73.664C123.336 74.144 123.624 75.024 123.72 75.392ZM123.72 75.392C124.04 75.248 124.552 75.12 126.952 74.864C126.968 74.48 127.048 73.792 127.144 73.328L124.456 73.536L123.672 74.048L123.72 75.392ZM123.448 80.816L123.912 82.72C125.48 82.064 127.448 81.232 129.288 80.432L128.904 78.784C126.92 79.568 124.808 80.384 123.448 80.816Z" fill="black"/>
<path d="M140.792 69.296V71.024H143.608V77.36H140.792V79.12H145.384V69.296H140.792ZM140.808 73.296V75.008H144.312V73.296H140.808ZM147.64 69.056V70.832H152.552V69.056H147.64ZM147.64 72.88V74.608H152.552V72.88H147.64ZM147.608 76.672V78.384H152.536V76.672H147.608ZM139.768 69.296V80.512H141.544V69.296H139.768ZM151.832 69.056V81.216C151.832 81.504 151.736 81.6 151.448 81.6C151.176 81.6 150.2 81.616 149.336 81.568C149.608 82.064 149.912 82.896 149.992 83.424C151.352 83.424 152.264 83.376 152.904 83.072C153.528 82.768 153.736 82.24 153.736 81.248V69.056H151.832ZM146.488 69.056V74.848C146.488 77.296 146.248 80.304 143.544 82.272C143.96 82.528 144.696 83.184 144.984 83.568C147.944 81.392 148.376 77.632 148.376 74.864V69.056H146.488Z" fill="black"/>
<path d="M157.432 78.8V80.288H167.864V78.8H157.432ZM157.848 76.224V77.808H168.584V76.224H157.848ZM155.464 81.376V83.024H169.624V81.376H155.464ZM161.576 75.248V82.528H163.576V75.248H161.576ZM158.888 72.64H165.992V73.488H158.888V72.64ZM158.888 70.432H165.992V71.28H158.888V70.432ZM157.016 68.976V74.96H167.992V68.976H157.016ZM157.832 74.8C157.256 76.096 156.2 77.392 155.096 78.224C155.544 78.496 156.328 79.072 156.696 79.424C157.8 78.448 159 76.896 159.72 75.344L157.832 74.8Z" fill="black"/>
</svg>
